<?xml version="1.0" standalone="no"?>
<!DOCTYPE svg PUBLIC "-//W3C//DTD SVG 20010904//EN"
 "http://www.w3.org/TR/2001/REC-SVG-20010904/DTD/svg10.dtd">
<svg version="1.0" xmlns="http://www.w3.org/2000/svg"
 width="700.000000pt" height="700.000000pt" viewBox="0 0 700.000000 700.000000"
 preserveAspectRatio="xMidYMid meet">
<metadata>
Created by potrace 1.14, written by Peter Selinger 2001-2017
</metadata>
<g transform="translate(0.000000,700.000000) scale(0.100000,-0.100000)"
fill="#000000" stroke="none">
<path d="M1510 3585 l0 -2835 385 0 385 0 1 1363 0 1362 1358 -1363 1358
-1362 504 2 503 3 -1504 1508 -1503 1508 36 37 c20 20 650 613 1401 1317 750
704 1365 1283 1365 1288 1 4 -219 7 -487 7 l-488 0 -1270 -1196 -1269 -1195
-3 1195 -2 1196 -385 0 -385 0 0 -2835z"/>
</g>
</svg>
