<?xml version="1.0" encoding="UTF-8" standalone="no"?>
<!DOCTYPE svg PUBLIC "-//W3C//DTD SVG 1.1//EN" "http://www.w3.org/Graphics/SVG/1.1/DTD/svg11.dtd">
<svg width="100%" height="100%" viewBox="0 0 1000 500" version="1.1" xmlns="http://www.w3.org/2000/svg" xmlns:xlink="http://www.w3.org/1999/xlink" xml:space="preserve" xmlns:serif="http://www.serif.com/" style="fill-rule:evenodd;clip-rule:evenodd;stroke-linejoin:round;stroke-miterlimit:2;">
    <g transform="matrix(1,0,0,1,-75.0314,60.4585)">
        <g transform="matrix(120,0,0,120,1038.1,132.616)">
        </g>
        <text x="111.965px" y="132.616px" style="font-family:'Georgia', serif;font-size:120px;fill:rgb(4,120,120);">Mark Berthelemy</text>
    </g>
    <g transform="matrix(1,0,0,1,-75.0314,256.025)">
        <g transform="matrix(145,0,0,145,1051.7,151.512)">
        </g>
        <text x="98.365px" y="151.512px" style="font-family:'Georgia', serif;font-size:145px;fill:rgb(4,120,120);">CONSULTING</text>
    </g>
    <g transform="matrix(1,0,0,1,-2.22205,-10.1525)">
        <path d="M27.018,260.152L961.471,260.152" style="fill:none;"/>
        <path d="M27.018,268.152C22.603,268.152 19.018,264.568 19.018,260.152C19.018,255.737 22.603,252.152 27.018,252.152L961.471,252.152C965.887,252.152 969.471,255.737 969.471,260.152C969.471,264.568 965.887,268.152 961.471,268.152L27.018,268.152Z" style="fill:rgb(4,120,120);"/>
    </g>
</svg>
