<?xml version="1.0" encoding="utf-8"?>
<!-- Generator: Adobe Illustrator 28.5.0, SVG Export Plug-In . SVG Version: 9.03 Build 54727)  -->
<svg version="1.0" id="Layer_1" xmlns="http://www.w3.org/2000/svg" xmlns:xlink="http://www.w3.org/1999/xlink" x="0px" y="0px"
	 viewBox="0 0 554.5 181" style="enable-background:new 0 0 554.5 181;" xml:space="preserve">
<style type="text/css">
	.st0{fill:url(#SVGID_1_);}
	.st1{fill:url(#SVGID_00000142159821848915419490000011555235803628196266_);}
	.st2{fill:url(#SVGID_00000170255654264595405140000008381238114311012518_);}
	.st3{fill:url(#SVGID_00000127731438856485597490000013011067454483270020_);}
	.st4{fill:url(#SVGID_00000073688038830881977430000005224801223249415826_);}
	.st5{fill:url(#SVGID_00000064353579608319311380000001337879482851068839_);}
	.st6{fill:#1E2F4F;}
	.st7{fill:url(#SVGID_00000050620878757438678000000014063345209131748500_);}
</style>
<linearGradient id="SVGID_1_" gradientUnits="userSpaceOnUse" x1="-29.4547" y1="-319.8174" x2="172.7349" y2="-194.5479" gradientTransform="matrix(1 0 0 -1 0 -155.0656)">
	<stop  offset="0.2079" style="stop-color:#3D5E9E"/>
	<stop  offset="0.5257" style="stop-color:#2F91AB"/>
	<stop  offset="0.9753" style="stop-color:#3CA7E3"/>
</linearGradient>
<path class="st0" d="M159.9,148.4c9.4-11.1,7.7-27.9-3.6-37.1c-7.8-6.5-18.5-7.8-27.3-4l-46.9,27c-15.4,8.8-28,1.7-28-16.2V62.8
	c0-17.8,12.7-25.1,28-16.2L129,73.8c8.8,3.6,19.3,2.5,27.3-4c11.1-9.4,13-26,3.6-37.1l0,0C143.3,12.7,118.4,0,90.5,0
	C40.4,0,0,40.4,0,90.5S40.4,181,90.5,181C118.4,180.9,143.2,168.5,159.9,148.4L159.9,148.4z"/>
<linearGradient id="SVGID_00000160900896014347906010000016487646072650735748_" gradientUnits="userSpaceOnUse" x1="82.9778" y1="-113.6957" x2="82.9778" y2="-305.0387" gradientTransform="matrix(1 0 0 -1 0 -155.0656)">
	<stop  offset="0" style="stop-color:#3CA7E3"/>
	<stop  offset="0.7026" style="stop-color:#2F91AB"/>
	<stop  offset="0.9741" style="stop-color:#3D5E9E"/>
</linearGradient>
<path style="fill:url(#SVGID_00000160900896014347906010000016487646072650735748_);" d="M90.5,0C40.4,0,0,40.4,0,90.5
	c0,15.3,3.9,29.9,10.7,42.4c10.7,6.8,23.1,10.8,36.8,10.8c13.1,0,25.3-3.6,35.7-10.1l-1,0.6c-15.4,8.8-28,1.7-28-16.2V62.8
	c0-17.8,12.7-25.1,28-16.2L129,73.8c8.8,3.6,19.3,2.5,27.3-4c11.1-9.4,13-26,3.6-37.1C143.3,12.7,118.4,0,90.5,0z"/>
<linearGradient id="SVGID_00000173141924521253661600000002940272494667444870_" gradientUnits="userSpaceOnUse" x1="64.2344" y1="-245.4585" x2="129.7351" y2="-245.4585" gradientTransform="matrix(1 0 0 -1 0 -155.0656)">
	<stop  offset="0" style="stop-color:#3D5E9E"/>
	<stop  offset="0.5" style="stop-color:#2F91AB"/>
	<stop  offset="1" style="stop-color:#3CA7E3"/>
</linearGradient>
<path style="fill:url(#SVGID_00000173141924521253661600000002940272494667444870_);" d="M123.3,99.5c8.5-4.8,8.5-13,0-17.8
	L79.7,56.3c-8.5-4.8-15.4-0.9-15.4,8.9v50.2c0,9.8,6.9,13.9,15.4,8.9L123.3,99.5z"/>
<radialGradient id="SVGID_00000139972652819447345250000010538667833987439235_" cx="76.2402" cy="-414.1326" r="84.8535" gradientTransform="matrix(0.8691 0 0 -0.8691 73.8062 -268.1509)" gradientUnits="userSpaceOnUse">
	<stop  offset="0" style="stop-color:#FFFFFF;stop-opacity:0.2"/>
	<stop  offset="1" style="stop-color:#FFFFFF;stop-opacity:5.000000e-02"/>
</radialGradient>
<path style="fill:url(#SVGID_00000139972652819447345250000010538667833987439235_);" d="M123.3,81.4L79.7,56.3
	c-8.5-4.8-15.4-0.9-15.4,8.9c0,11.8,32.3,40.3,48.4,40.3l0,0l10.8-6.2C131.8,94.4,131.8,86.5,123.3,81.4z"/>
<radialGradient id="SVGID_00000020399944579160707660000003337969937007336616_" cx="76.2402" cy="-414.1326" r="84.8535" gradientTransform="matrix(0.8691 0 0 -0.8691 73.8062 -268.1509)" gradientUnits="userSpaceOnUse">
	<stop  offset="0" style="stop-color:#FFFFFF;stop-opacity:0.2"/>
	<stop  offset="1" style="stop-color:#FFFFFF;stop-opacity:5.000000e-02"/>
</radialGradient>
<path style="fill:url(#SVGID_00000020399944579160707660000003337969937007336616_);" d="M123.3,99.5l-43.6,25.1
	c-8.5,4.8-15.4,0.9-15.4-8.9c0-11.8,32.3-40.3,48.4-40.3l0,0l10.8,6.2C131.8,86.5,131.8,94.4,123.3,99.5z"/>
<radialGradient id="SVGID_00000012471192269120396420000001219885553884535227_" cx="76.2402" cy="-414.1326" r="84.8535" gradientTransform="matrix(0.8691 0 0 -0.8691 73.8062 -268.1509)" gradientUnits="userSpaceOnUse">
	<stop  offset="0" style="stop-color:#FFFFFF;stop-opacity:0.2"/>
	<stop  offset="1" style="stop-color:#FFFFFF;stop-opacity:5.000000e-02"/>
</radialGradient>
<path style="fill:url(#SVGID_00000012471192269120396420000001219885553884535227_);" d="M98.7,108.3c3.6,0,7.2-0.3,10.5-0.9l14-7.9
	c8.5-4.8,8.5-13,0-17.8l-14-8.1c-3.3-0.4-6.8-0.9-10.5-0.9c-19.2,0-34.6,7.9-34.6,17.8C64.1,100.5,79.7,108.3,98.7,108.3z"/>
<path class="st6" d="M225.5,84.7c-6.6,0-12.1-2.2-16.5-6.6s-6.5-10-6.5-16.5s2.2-12,6.5-16.5c4.5-4.5,10-6.6,16.5-6.6
	c4.3,0,8.2,1,11.7,3c3.5,2,6.2,4.8,7.9,8.2l-9.7,5.6c-0.9-1.9-2.2-3.2-4-4.3c-1.9-1-3.9-1.4-6.1-1.4c-3.3,0-6.2,1.2-8.5,3.3
	c-2.2,2.3-3.3,5.2-3.3,8.7c0,3.3,1.2,6.4,3.3,8.7c2.2,2.2,5.1,3.3,8.5,3.3c2.3,0,4.3-0.4,6.2-1.4s3.2-2.5,4-4.3l9.8,5.6
	c-2,3.5-4.6,6.4-8.2,8.4C233.7,83.7,229.7,84.7,225.5,84.7z"/>
<path class="st6" d="M283.4,45v-5.2h11.3v43.7h-11.3v-5.2c-3.3,4.3-8.2,6.4-14.3,6.4c-5.8,0-10.8-2.2-15.2-6.6
	c-4.2-4.5-6.2-10-6.2-16.5s2-11.8,6.2-16.3c4.2-4.5,9.1-6.8,15.2-6.8C275.1,38.5,279.9,40.7,283.4,45z M262.3,70.6
	c2.3,2.3,5.2,3.5,8.7,3.5s6.4-1.2,8.7-3.5s3.5-5.3,3.5-8.9c0-3.6-1.2-6.5-3.5-8.8c-2.3-2.3-5.2-3.5-8.7-3.5s-6.4,1.2-8.7,3.5
	c-2.3,2.3-3.5,5.2-3.5,8.8C259,65.2,260.1,68.3,262.3,70.6z"/>
<path class="st6" d="M336.9,45v-23h11.3v61.3h-11.3v-5.2c-3.3,4.3-7.9,6.4-14.1,6.4c-5.8,0-11-2.2-15.2-6.6
	c-4.2-4.5-6.2-10-6.2-16.5s2-11.8,6.2-16.3c4.2-4.5,9.4-6.8,15.2-6.8C329,38.5,333.6,40.7,336.9,45z M316.1,70.6
	c2.3,2.3,5.3,3.5,8.8,3.5c3.5,0,6.4-1.2,8.7-3.5c2.3-2.3,3.5-5.3,3.5-8.9c0-3.6-1.2-6.5-3.5-8.8c-2.3-2.3-5.2-3.5-8.7-3.5
	s-6.5,1.2-8.8,3.5c-2.3,2.3-3.5,5.2-3.5,8.8C312.7,65.2,313.8,68.3,316.1,70.6z"/>
<path class="st6" d="M405.9,38.5c5.1,0,8.9,1.7,12,4.8c3,3.3,4.5,7.7,4.5,13.1v27h-11.3V57.3c0-2.6-0.7-4.6-2-6.2
	c-1.3-1.6-3.2-2.2-5.5-2.2c-2.5,0-4.5,0.9-6.1,2.5c-1.4,1.7-2.2,4.2-2.2,7.4v24.7h-11.3V57.3c0-2.6-0.7-4.6-2-6.2
	c-1.3-1.4-3.2-2.2-5.5-2.2c-2.5,0-4.5,0.9-6.1,2.6c-1.4,1.7-2.2,4.2-2.2,7.4v24.7h-11.3V39.8h11.3v4.6c2.6-4,6.6-5.8,12.1-5.8
	s9.5,2.2,12,6.4C395.8,40.7,400.1,38.5,405.9,38.5z"/>
<path class="st6" d="M468.4,78.1c-4.5,4.5-10,6.6-16.5,6.6c-6.5,0-12-2.2-16.5-6.6c-4.5-4.5-6.6-10-6.6-16.5s2.2-12,6.6-16.3
	c4.5-4.5,10-6.8,16.5-6.8c6.5,0,12,2.3,16.5,6.8s6.8,10,6.8,16.3C475.2,68.1,472.9,73.6,468.4,78.1z M443.4,70.3
	c2.3,2.3,5.2,3.5,8.5,3.5c3.3,0,6.2-1.2,8.5-3.5c2.3-2.3,3.5-5.2,3.5-8.7s-1.2-6.4-3.5-8.7c-2.3-2.3-5.2-3.5-8.5-3.5
	c-3.3,0-6.2,1.2-8.5,3.5c-2.2,2.3-3.3,5.2-3.3,8.7C440.1,65.1,441.3,68,443.4,70.3z"/>
<path class="st6" d="M493.2,39.8v7.5c1-2.6,2.6-4.8,5.2-6.4c2.3-1.4,5.2-2.2,8.2-2.2v12.7c-3.5-0.4-6.5,0.1-9.4,2.2
	c-2.6,1.9-4,4.8-4,8.9v20.9H482V39.8H493.2z"/>
<path class="st6" d="M554.1,66.3h-33.1c1.4,5.5,5.6,8.2,12.3,8.2c4.3,0,7.7-1.4,9.8-4.3l9.1,5.3c-4.3,6.4-10.7,9.4-19.2,9.4
	c-7.4,0-13-2.2-17.5-6.5c-4.3-4.3-6.5-9.8-6.5-16.5c0-6.5,2.2-12,6.5-16.5c4.3-4.5,9.8-6.6,16.6-6.6c6.5,0,11.8,2.2,15.9,6.6
	c4.2,4.5,6.4,10,6.4,16.5C554.6,62.8,554.4,64.5,554.1,66.3z M520.9,57.5h22.4c-0.7-2.9-2-5.1-3.9-6.5c-2-1.4-4.3-2.3-6.9-2.3
	c-3,0-5.5,0.9-7.5,2.3C523,52.4,521.7,54.9,520.9,57.5z"/>
<path class="st6" d="M251.7,112.4c5.1,0,8.9,1.7,12,4.8c3,3.3,4.5,7.7,4.5,13.1v27h-11.3v-26.1c0-2.6-0.7-4.6-2-6.2
	c-1.3-1.6-3.2-2.2-5.5-2.2c-2.5,0-4.5,0.9-6.1,2.5c-1.6,1.6-2.2,4.2-2.2,7.4v24.7h-11.3v-26.1c0-2.6-0.7-4.6-2-6.2
	c-1.3-1.4-3.2-2.2-5.5-2.2c-2.5,0-4.5,0.9-6.1,2.6c-1.4,1.7-2.2,4.2-2.2,7.4v24.7h-11v-43.9h11.3v4.6c2.6-4,6.6-5.8,12.1-5.8
	c5.5,0,9.4,2.2,12,6.4C241.5,114.5,245.8,112.4,251.7,112.4z"/>
<path class="st6" d="M319.4,140.3h-32.9c1.4,5.5,5.6,8.2,12.3,8.2c4.3,0,7.7-1.4,9.8-4.3l9.1,5.3c-4.3,6.4-10.7,9.4-19.2,9.4
	c-7.4,0-13-2.2-17.5-6.5c-4.3-4.3-6.5-9.8-6.5-16.5c0-6.5,2.2-12,6.5-16.5s9.8-6.6,16.6-6.6c6.5,0,11.8,2.2,15.9,6.6
	c4.2,4.5,6.4,10,6.4,16.5C319.7,136.7,319.6,138.3,319.4,140.3z M286.1,131.4h22.4c-0.7-2.9-2-5.1-3.9-6.5c-2-1.4-4.3-2.3-6.9-2.3
	c-3,0-5.5,0.9-7.5,2.3C288.1,126.4,286.8,128.6,286.1,131.4z"/>
<path class="st6" d="M359.7,118.8V96.1H371v61.2h-11.3v-5.2c-3.3,4.3-7.9,6.4-14.1,6.4c-5.8,0-11-2.2-15.2-6.6
	c-4.2-4.5-6.2-10-6.2-16.5c0-6.5,2-11.8,6.2-16.3c4.2-4.5,9.4-6.8,15.2-6.8C351.8,112.4,356.4,114.6,359.7,118.8z M338.9,144.3
	c2.3,2.3,5.3,3.5,8.8,3.5c3.5,0,6.4-1.2,8.7-3.5s3.5-5.3,3.5-8.9s-1.2-6.5-3.5-8.8c-2.3-2.3-5.2-3.5-8.7-3.5s-6.5,1.2-8.8,3.5
	s-3.5,5.2-3.5,8.8C335.6,139.3,336.6,142,338.9,144.3z"/>
<path class="st6" d="M386,108.4c-1.9,0-3.5-0.7-4.8-2c-1.3-1.3-2-3-2-4.8c0-1.9,0.7-3.5,2-4.8c1.3-1.3,3-2.2,4.8-2.2
	c2,0,3.5,0.7,5.1,2.2c1.3,1.3,2,3,2,4.8c0,1.9-0.7,3.5-2,4.8C389.6,107.5,387.9,108.4,386,108.4z M391.6,157.3h-11.3v-43.7h11.3
	V157.3z"/>
<path class="st6" d="M434.1,118.8v-5.2h11.3v43.7h-11.3v-5.2c-3.3,4.3-8.2,6.4-14.3,6.4c-5.8,0-10.8-2.2-15.2-6.6
	c-4.2-4.5-6.2-10-6.2-16.5c0-6.5,2-11.8,6.2-16.3c4.2-4.5,9.1-6.8,15.2-6.8C425.8,112.4,430.6,114.6,434.1,118.8z M413.1,144.3
	c2.3,2.3,5.2,3.5,8.7,3.5s6.4-1.2,8.7-3.5s3.5-5.3,3.5-8.9s-1.2-6.5-3.5-8.8s-5.2-3.5-8.7-3.5s-6.4,1.2-8.7,3.5
	c-2.3,2.3-3.5,5.2-3.5,8.8C409.8,139.3,411,142,413.1,144.3z"/>
<linearGradient id="SVGID_00000153683897470410567310000017407230393650327719_" gradientUnits="userSpaceOnUse" x1="70.4372" y1="-174.3439" x2="170.9614" y2="-240.2876" gradientTransform="matrix(1 0 0 -1 0 -155.0656)">
	<stop  offset="0" style="stop-color:#3D5E9E"/>
	<stop  offset="0.4102" style="stop-color:#2F91AB"/>
	<stop  offset="1" style="stop-color:#3CA7E3"/>
</linearGradient>
<path style="fill:url(#SVGID_00000153683897470410567310000017407230393650327719_);" d="M54.4,58.9c0-0.1,0-0.3,0.1-0.4
	c2.6-12.8,13.7-19.6,27.7-11.5l46.9,27c8.8,3.6,19.3,2.5,27.3-4c11.1-9.4,13-26,3.6-37.1c-7.5-9.1-16.9-16.7-27.3-22.2h-0.1
	c-8.7-4.3-18.3-6.6-28.9-6.6C76.4,3.9,54,26.3,54,53.7"/>
</svg>
