<?xml version="1.0" encoding="UTF-8" standalone="no"?>
<svg
   width="761.18701"
   height="194.9707"
   viewBox="0 0 761.18701 194.9707"
   fill="none"
   version="1.1"
   id="svg44"
   sodipodi:docname="ews-kt-logo.svg"
   inkscape:version="1.4 (e7c3feb1, 2024-10-09)"
   xmlns:inkscape="http://www.inkscape.org/namespaces/inkscape"
   xmlns:sodipodi="http://sodipodi.sourceforge.net/DTD/sodipodi-0.dtd"
   xmlns="http://www.w3.org/2000/svg"
   xmlns:svg="http://www.w3.org/2000/svg">
  <defs
     id="defs44" />
  <sodipodi:namedview
     id="namedview44"
     pagecolor="#ffffff"
     bordercolor="#000000"
     borderopacity="0.25"
     inkscape:showpageshadow="2"
     inkscape:pageopacity="0.0"
     inkscape:pagecheckerboard="0"
     inkscape:deskcolor="#d1d1d1"
     inkscape:zoom="1.4019759"
     inkscape:cx="539.95223"
     inkscape:cy="27.817882"
     inkscape:window-width="1472"
     inkscape:window-height="829"
     inkscape:window-x="0"
     inkscape:window-y="37"
     inkscape:window-maximized="1"
     inkscape:current-layer="svg44" />
  <path
     d="m 300.17745,39.998643 h 8.40777 v 20.21873 l 23.82917,-20.21873 h 11.95197 l -20.52802,17.181193 22.60058,26.196853 h -11.01184 l -17.68624,-21.190913 -9.17965,7.70348 v 13.487433 h -8.40778 V 39.998643 Z"
     fill="#006848"
     id="path1"
     style="stroke-width:2.67083" />
  <path
     d="m 352.75277,39.998643 h 8.86716 l 28.74349,31.324582 V 39.998643 h 8.04989 v 43.378046 h -7.68666 l -29.92667,-32.46663 v 32.46663 h -8.04721 z"
     fill="#006848"
     id="path2"
     style="stroke-width:2.67083" />
  <path
     d="m 405.83288,62.016979 c 0,-2.989194 0.43534,-5.856866 1.32473,-8.627053 0.89206,-2.770454 2.33698,-5.224948 4.38551,-7.363483 2.04852,-2.138535 4.67395,-3.863892 7.92703,-5.151767 3.25307,-1.288143 7.25397,-1.944099 11.976,-1.944099 4.72203,0 8.72294,0.655956 11.97601,1.944099 3.25308,1.287875 5.90254,3.013232 7.92703,5.151767 2.02449,2.138535 3.49345,4.617334 4.38551,7.363483 0.89206,2.770187 1.32473,5.637859 1.32473,8.627053 0,2.260058 -0.3846,4.714285 -1.15647,7.314607 -0.77187,2.600322 -2.12064,5.030512 -4.02494,7.29057 -1.90164,2.260057 -4.52973,4.106937 -7.83088,5.613554 -3.32519,1.482311 -7.51572,2.235753 -12.60099,2.235753 -5.08259,0 -9.27579,-0.753442 -12.60098,-2.235753 -3.32518,-1.482312 -5.92658,-3.353497 -7.83088,-5.613554 -1.9043,-2.260058 -3.25307,-4.665943 -4.02494,-7.29057 -0.7692,-2.600322 -1.15647,-5.030244 -1.15647,-7.314607 z m 25.61327,15.163915 c 2.00046,0 4.04899,-0.242779 6.09751,-0.704566 2.04586,-0.486091 3.90209,-1.312447 5.54198,-2.503103 1.63722,-1.190657 2.98599,-2.794759 4.02227,-4.811771 1.03628,-2.017012 1.56778,-4.54442 1.56778,-7.606261 0,-2.624627 -0.43535,-4.884685 -1.30337,-6.804478 -0.86535,-1.919794 -2.07256,-3.499324 -3.61363,-4.763162 -1.54107,-1.26357 -3.37326,-2.211181 -5.46986,-2.8431 -2.12065,-0.607614 -4.38551,-0.923574 -6.84268,-0.923574 -2.45716,0 -4.72203,0.31596 -6.84267,0.923574 -2.12064,0.607614 -3.92879,1.555225 -5.46986,2.8431 -1.54107,1.263838 -2.74561,2.867672 -3.61363,4.763162 -0.86803,1.919793 -1.3007,4.179851 -1.3007,6.804478 0,3.061841 0.52882,5.589249 1.56511,7.606261 1.03628,2.017012 2.38505,3.621114 4.02494,4.811771 1.63722,1.190656 3.46941,2.017012 5.54198,2.503103 2.04585,0.461787 4.07034,0.704566 6.09483,0.704566 z"
     fill="#006848"
     id="path3"
     style="stroke-width:2.67083" />
  <path
     d="m 460.48077,39.998643 h 8.41045 l 8.28759,29.842004 h 0.12018 l 8.21815,-29.842004 h 8.04722 L 501.90002,69.768 h 0.12019 l 8.21815,-29.769357 h 8.21548 l -12.55291,43.378046 h -8.04722 l -8.17007,-30.789882 h -0.12019 l -8.21548,30.789882 h -8.21814 z"
     fill="#006848"
     id="path4"
     style="stroke-width:2.67083" />
  <path
     d="m 524.67154,39.998643 h 8.40777 v 35.869003 h 31.17929 v 7.509043 H 524.69557 V 39.998643 Z"
     fill="#006848"
     id="path5"
     style="stroke-width:2.67083" />
  <path
     d="m 570.69264,39.998643 h 38.57482 v 7.290302 h -30.16705 v 10.085061 h 25.97651 v 7.290569 h -25.97651 v 11.446116 h 30.89084 v 7.290302 h -39.27458 v -43.40235 z"
     fill="#006848"
     id="path6"
     style="stroke-width:2.67083" />
  <path
     d="m 616.71374,39.998643 h 20.69627 c 3.3973,0 6.57826,0.388873 9.54288,1.166352 2.98599,0.777746 5.56602,2.017012 7.78281,3.69376 2.21679,1.70132 3.95016,3.888464 5.22682,6.634346 1.27932,2.721845 1.92834,6.026732 1.92834,9.9395 0,3.693761 -0.60094,6.925734 -1.78145,9.671883 -1.18051,2.746149 -2.84443,5.030245 -4.96507,6.853087 -2.12065,1.822576 -4.67396,3.183365 -7.63858,4.082634 -2.96196,0.899002 -6.21503,1.336484 -9.75655,1.336484 H 616.6897 V 39.998643 Z m 16.91437,36.112048 c 3.5896,0 6.62634,-0.26735 9.13158,-0.826355 2.50524,-0.559005 4.55377,-1.433703 6.14558,-2.624626 1.58915,-1.190657 2.76965,-2.69754 3.49345,-4.544421 0.72112,-1.822575 1.08436,-4.009719 1.08436,-6.561432 0,-2.672968 -0.38727,-4.908721 -1.13243,-6.706992 -0.74784,-1.822576 -1.92835,-3.28085 -3.52016,-4.374289 -1.58915,-1.11801 -3.66171,-1.919793 -6.19099,-2.405885 -2.52928,-0.510396 -5.54197,-0.753441 -9.05946,-0.753441 h -8.53064 v 28.797441 z"
     fill="#006848"
     id="path7"
     style="stroke-width:2.67083" />
  <path
     d="m 713.67294,61.142282 v 22.722101 h -5.08526 l -1.66126,-4.471507 c -0.81994,0.558738 -1.73604,1.117743 -2.72425,1.701053 -0.98821,0.58331 -2.12064,1.117743 -3.3973,1.628139 -1.27665,0.510396 -2.74561,0.923574 -4.3855,1.263838 -1.63722,0.315692 -3.49345,0.485824 -5.59005,0.485824 -1.80548,0 -3.68575,-0.170132 -5.61409,-0.485824 -1.92834,-0.31596 -3.80594,-0.826356 -5.59005,-1.555493 -1.80548,-0.704565 -3.49345,-1.652443 -5.08259,-2.8431 -1.59182,-1.166619 -2.98866,-2.600322 -4.16917,-4.27707 -1.18051,-1.677015 -2.12064,-3.621114 -2.8204,-5.881171 -0.69709,-2.259791 -1.03628,-4.811504 -1.03628,-7.679176 0,-2.891709 0.45938,-5.735077 1.37547,-8.481226 0.91343,-2.746149 2.31295,-5.176072 4.26265,-7.314607 1.92834,-2.138535 4.40955,-3.839587 7.44628,-5.127729 3.03674,-1.287876 6.69845,-1.944099 11.01184,-1.944099 2.4812,0 4.96241,0.243046 7.44628,0.753442 2.4812,0.510129 4.7701,1.312179 6.86671,2.478532 2.0966,1.166619 3.90208,2.64893 5.42179,4.495811 1.51703,1.84688 2.52927,4.155547 3.03406,6.901696 h -8.57604 c -0.24305,-0.559005 -0.60361,-1.263571 -1.08436,-2.089926 -0.50746,-0.826355 -1.22858,-1.628139 -2.19275,-2.405885 -0.96417,-0.777479 -2.24083,-1.433703 -3.80861,-1.992708 -1.5651,-0.559005 -3.61363,-0.826088 -6.09483,-0.826088 -3.3973,0 -6.16963,0.510129 -8.3143,1.530921 -2.14201,1.020525 -3.85401,2.284362 -5.0826,3.815283 -1.22858,1.530921 -2.0966,3.183364 -2.57735,4.957598 -0.48342,1.773966 -0.69976,3.402105 -0.69976,4.933026 0,2.576017 0.40864,4.836075 1.20455,6.780173 0.79591,1.919794 1.92834,3.547933 3.34922,4.836075 1.42088,1.287875 3.10885,2.260058 5.06123,2.916014 1.9497,0.656224 4.07034,0.996488 6.35925,0.996488 4.16917,0 7.44628,-0.729137 9.83133,-2.211449 2.36101,-1.482312 4.07302,-3.742369 5.08526,-6.804478 h -15.08485 v -6.804478 z"
     fill="#006848"
     id="path8"
     style="stroke-width:2.67083" />
  <path
     d="m 721.88842,39.998643 h 38.57482 v 7.290302 H 730.2962 v 10.085061 h 25.97651 v 7.290569 H 730.2962 v 11.446116 h 30.89084 v 7.290302 h -39.27458 v -43.40235 z"
     fill="#006848"
     id="path9"
     style="stroke-width:2.67083" />
  <path
     d="m 315.50001,118.88246 h -19.22732 v -7.29057 h 46.84105 v 7.29057 h -19.22732 v 36.08774 h -8.41045 v -36.08774 z"
     fill="#006848"
     id="path10"
     style="stroke-width:2.67083" />
  <path
     d="m 349.37951,111.61673 h 25.85365 c 2.52928,0 4.86625,0.17013 7.01093,0.5347 2.14468,0.36457 4.00091,1.02052 5.56602,1.9684 1.56777,0.94761 2.77232,2.26006 3.63767,3.93681 0.86802,1.67675 1.30336,3.83959 1.30336,6.51282 0,1.99271 -0.33919,3.76667 -0.9882,5.2976 -0.65169,1.55549 -1.51971,2.86767 -2.6281,3.93707 -1.1084,1.06913 -2.38505,1.91979 -3.85401,2.50283 -1.46896,0.60762 -2.98866,0.92358 -4.55377,1.0208 l 13.18055,17.66701 h -10.36282 l -12.4808,-17.0594 h -13.30074 v 17.0594 h -8.40778 v -43.37804 z m 24.62507,19.24681 c 1.68529,0 3.20499,-0.0729 4.50569,-0.24304 1.3007,-0.17014 2.38505,-0.46179 3.25307,-0.89927 0.86535,-0.43722 1.51704,-1.06914 1.94971,-1.87119 0.43535,-0.80178 0.65168,-1.84688 0.65168,-3.13475 0,-1.26357 -0.21633,-2.30867 -0.65168,-3.11072 -0.43267,-0.80178 -1.08436,-1.4094 -1.94971,-1.84688 -0.86802,-0.43748 -1.95237,-0.72887 -3.25307,-0.899 -1.3007,-0.14583 -2.79636,-0.24305 -4.50569,-0.24305 h -16.21729 v 12.2236 h 16.21729 z"
     fill="#006848"
     id="path11"
     style="stroke-width:2.67083" />
  <path
     d="m 418.53001,111.61673 h 9.59096 l 20.89124,43.37804 h -8.86716 l -4.50569,-9.96353 h -24.796 l -4.55377,9.96353 h -8.93927 z m 13.78416,26.1242 -8.98734,-19.34403 -8.98735,19.34403 z"
     fill="#006848"
     id="path12"
     style="stroke-width:2.67083" />
  <path
     d="m 454.57823,111.61673 h 8.86716 l 28.74349,31.32458 v -31.32458 h 8.04989 v 43.37804 h -7.68666 l -29.9507,-32.46663 v 32.46663 h -8.04722 v -43.37804 z"
     fill="#006848"
     id="path13"
     style="stroke-width:2.67083" />
  <path
     d="m 543.89885,124.78793 c -0.36323,-0.94761 -0.86802,-1.87118 -1.5197,-2.74588 -0.64901,-0.87496 -1.56511,-1.65244 -2.72158,-2.30866 -1.15647,-0.65623 -2.62543,-1.19093 -4.3855,-1.57953 -1.76008,-0.38888 -3.90209,-0.60762 -6.48211,-0.60762 -1.42088,0 -2.81773,0.0972 -4.16917,0.29166 -1.34877,0.19443 -2.57735,0.51039 -3.66171,0.9233 -1.08436,0.41318 -1.95238,0.97219 -2.60139,1.67702 -0.65168,0.70456 -0.96417,1.53092 -0.96417,2.52714 0,0.48609 0.0962,0.94788 0.28845,1.40966 0.1923,0.46152 0.62764,0.89901 1.30069,1.33649 0.67572,0.43748 1.63989,0.82635 2.94059,1.19065 1.27666,0.36457 2.98866,0.68053 5.1093,0.94788 l 10.16786,1.55523 c 2.40909,0.36457 4.55376,0.87496 6.45807,1.55549 1.90163,0.68026 3.49345,1.53092 4.81818,2.52714 1.32473,1.02079 2.31294,2.21145 3.0127,3.62112 0.69708,1.38509 1.03361,3.01323 1.03361,4.8358 0,2.57602 -0.55286,4.76316 -1.6853,6.53713 -1.13243,1.77397 -2.64946,3.23224 -4.5778,4.34998 -1.92834,1.14232 -4.19321,1.9441 -6.74652,2.4545 -2.55332,0.51039 -5.27757,0.75344 -8.17008,0.75344 -4.62588,0 -8.40778,-0.5104 -11.39644,-1.48258 -2.98599,-0.99622 -5.347,-2.16284 -7.13112,-3.52363 -1.78411,-1.36079 -3.06077,-2.72184 -3.88072,-4.10693 -0.81727,-1.3851 -1.32473,-2.50311 -1.5651,-3.3535 l 8.09529,-2.57602 c 0.38727,0.80179 0.91609,1.65245 1.56778,2.52741 0.64901,0.899 1.5651,1.72536 2.76965,2.50284 1.20454,0.77774 2.74828,1.40966 4.64992,1.9441 1.9043,0.51039 4.26532,0.77774 7.10975,0.77774 1.6853,0 3.32519,-0.14583 4.84222,-0.41318 1.54107,-0.26735 2.86847,-0.68026 4.0009,-1.19065 1.13244,-0.5104 2.02182,-1.14232 2.69754,-1.87119 0.67573,-0.72913 1.01225,-1.57979 1.01225,-2.52741 0,-2.81906 -3.10885,-4.64163 -9.34791,-5.41911 l -10.29072,-1.43397 c -5.01048,-0.68053 -8.84312,-2.06562 -11.49258,-4.17985 -2.67351,-2.11424 -4.00091,-4.83608 -4.00091,-8.16527 0,-2.13854 0.41131,-3.96111 1.25529,-5.46773 0.81728,-1.48258 1.90163,-2.72184 3.20233,-3.69403 1.30336,-0.97191 2.74828,-1.72535 4.33743,-2.23548 1.59181,-0.5104 3.13288,-0.89927 4.62588,-1.14232 1.47163,-0.24304 2.8204,-0.38887 4.02494,-0.41317 1.20455,-0.0243 2.07257,-0.0486 2.62543,-0.0486 4.62855,0 8.36237,0.46178 11.20414,1.40966 2.84443,0.94761 5.1093,2.04132 6.72248,3.30489 1.61586,1.26357 2.77233,2.55171 3.42401,3.83959 0.67305,1.28814 1.13243,2.30866 1.42088,3.06211 z"
     fill="#006848"
     id="path14"
     style="stroke-width:2.67083" />
  <path
     d="m 559.6808,111.61673 h 39.56303 v 7.29057 h -31.17929 v 10.08506 h 26.79378 v 7.2903 h -26.79378 v 18.73642 h -8.40778 v -43.40235 z"
     fill="#006848"
     id="path15"
     style="stroke-width:2.67083" />
  <path
     d="m 605.7019,111.61673 h 38.57482 v 7.29057 h -30.16704 v 10.08506 h 25.97651 v 7.2903 h -25.97651 v 11.44612 h 30.89084 v 7.2903 h -39.27458 v -43.40235 z"
     fill="#006848"
     id="path16"
     style="stroke-width:2.67083" />
  <path
     d="m 651.723,111.61673 h 25.85365 c 2.53195,0 4.86893,0.17013 7.0136,0.5347 2.14201,0.36457 3.99824,1.02052 5.56602,1.9684 1.56511,0.94761 2.76965,2.26006 3.63767,3.93681 0.86802,1.67675 1.3007,3.83959 1.3007,6.51282 0,1.99271 -0.33653,3.76667 -0.98821,5.2976 -0.65168,1.55549 -1.51703,2.86767 -2.62543,3.93707 -1.10839,1.06913 -2.38505,1.91979 -3.85668,2.50283 -1.46896,0.60762 -2.98599,0.92358 -4.55377,1.0208 l 13.18056,17.66701 h -10.36016 l -12.4808,-17.0594 h -13.30074 v 17.0594 h -8.41045 v -43.37804 z m 24.62507,19.24681 c 1.68796,0 3.205,-0.0729 4.50569,-0.24304 1.3007,-0.17014 2.38505,-0.46179 3.25307,-0.89927 0.86802,-0.43722 1.51704,-1.06914 1.95238,-1.87119 0.43268,-0.80178 0.64901,-1.84688 0.64901,-3.13475 0,-1.26357 -0.21633,-2.30867 -0.64901,-3.11072 -0.43534,-0.80178 -1.08436,-1.4094 -1.95238,-1.84688 -0.86802,-0.43748 -1.95237,-0.72887 -3.25307,-0.899 -1.30069,-0.14583 -2.79369,-0.24305 -4.50569,-0.24305 h -16.21462 v 12.2236 h 16.21462 z"
     fill="#006848"
     id="path17"
     style="stroke-width:2.67083" />
  <path
     d="m 261.6726,0 h -2.40962 v 194.97071 h 2.40962 z"
     fill="#006848"
     id="path18"
     style="stroke-width:2.67083" />
  <path
     d="M 0.26473578,172.63909 H 11.85446 v 1.38509 H 1.8068177 v 4.05833 h 8.4814663 v 1.3851 H 1.8068177 v 6.00269 H 0.26473578 Z"
     fill="#da1931"
     id="path19"
     style="stroke-width:2.67083" />
  <path
     d="m 21.444241,179.10304 c 0,-1.06914 0.192754,-2.01702 0.554198,-2.86768 0.361417,-0.85039 0.891524,-1.55522 1.542085,-2.13853 0.650561,-0.58304 1.445694,-1.02053 2.337218,-1.33648 0.915508,-0.31596 1.903448,-0.46179 2.987806,-0.46179 1.084358,0 2.072031,0.14583 2.987859,0.46179 0.915561,0.31595 1.686631,0.75344 2.337245,1.33648 0.650348,0.58331 1.180508,1.28814 1.541871,2.13853 0.361631,0.85066 0.554198,1.79854 0.554198,2.86768 0,1.14204 -0.216872,2.11423 -0.650348,2.96489 -0.433743,0.82609 -0.98794,1.53092 -1.686897,2.06562 -0.69869,0.53443 -1.493796,0.94761 -2.38532,1.21496 -0.891523,0.26735 -1.783047,0.38887 -2.722646,0.38887 -0.915561,0 -1.831389,-0.12152 -2.722832,-0.38887 -0.891497,-0.26735 -1.686657,-0.68053 -2.3854,-1.21496 -0.69877,-0.5347 -1.252941,-1.23953 -1.686657,-2.06562 -0.385508,-0.82636 -0.60238,-1.82285 -0.60238,-2.96489 z m 1.566176,-0.26735 c 0,0.97218 0.168663,1.79827 0.481898,2.5031 0.313235,0.70483 0.746952,1.26357 1.277058,1.72536 0.53008,0.46178 1.156551,0.77774 1.879411,0.99648 0.698663,0.21875 1.445695,0.31596 2.240801,0.31596 0.771069,0 1.518101,-0.0972 2.216791,-0.31596 0.698689,-0.21874 1.325266,-0.5347 1.879464,-0.99648 0.53016,-0.46179 0.963636,-1.02053 1.300962,-1.72536 0.313289,-0.70483 0.482085,-1.53092 0.482085,-2.5031 0,-0.70484 -0.144759,-1.3851 -0.409705,-2.01702 -0.264947,-0.63191 -0.650615,-1.16635 -1.156471,-1.65244 -0.506122,-0.48609 -1.108395,-0.85066 -1.831389,-1.11801 -0.722727,-0.26708 -1.541871,-0.41291 -2.457699,-0.41291 -0.915561,0 -1.734705,0.14583 -2.457593,0.41291 -0.72286,0.26735 -1.349331,0.65622 -1.831229,1.11801 -0.505989,0.48609 -0.891523,1.02053 -1.156577,1.65244 -0.337326,0.63192 -0.457807,1.28788 -0.457807,2.01702 z"
     fill="#da1931"
     id="path20"
     style="stroke-width:2.67083" />
  <path
     d="m 60.309517,180.16843 c 0,1.16662 -0.192567,2.11423 -0.602273,2.81906 -0.409705,0.72914 -0.915561,1.28815 -1.542138,1.70106 -0.62631,0.41317 -1.349304,0.68052 -2.120373,0.82635 -0.77107,0.14583 -1.517834,0.21874 -2.264866,0.21874 -0.722727,0 -1.493796,-0.0729 -2.264865,-0.21874 -0.771069,-0.14583 -1.469759,-0.41318 -2.120373,-0.82635 -0.626577,-0.41291 -1.156737,-0.97192 -1.542138,-1.70106 -0.409706,-0.72913 -0.602273,-1.65244 -0.602273,-2.81906 v -7.53335 h 1.541871 v 7.53335 c 0,1.45828 0.433743,2.55171 1.325267,3.23224 0.891523,0.68053 2.096336,1.04483 3.662511,1.04483 1.566176,0 2.770988,-0.34 3.662512,-1.04483 0.891523,-0.70483 1.325267,-1.77396 1.325267,-3.23224 v -7.53335 h 1.541871 z"
     fill="#da1931"
     id="path21"
     style="stroke-width:2.67083" />
  <path
     d="m 72.139966,172.63508 h 2.192485 l 9.445397,10.52255 v -10.52255 h 1.541871 v 12.80691 H 83.777848 L 73.609724,174.02018 v 11.42181 h -1.469758 z"
     fill="#da1931"
     id="path22"
     style="stroke-width:2.67083" />
  <path
     d="m 97.054285,172.63508 h 6.264705 c 0.98794,0 1.9035,0.12153 2.72291,0.38888 0.81915,0.26735 1.54187,0.65622 2.14441,1.16635 0.60227,0.51039 1.08436,1.16662 1.42169,1.9684 0.33732,0.77775 0.50585,1.70132 0.50585,2.74615 0,1.31218 -0.21687,2.38158 -0.67465,3.20794 -0.43374,0.85039 -1.01198,1.50661 -1.71067,1.9927 -0.69896,0.48583 -1.49406,0.82609 -2.33724,1.02053 -0.86749,0.19444 -1.71067,0.29165 -2.55412,0.29165 h -5.782885 z m 1.542138,11.42182 h 4.481657 c 0.21687,0 0.48182,0 0.84345,-0.0243 0.36136,-0.0243 0.72272,-0.0972 1.13243,-0.19444 0.40944,-0.0972 0.81914,-0.26735 1.22885,-0.48609 0.40944,-0.21874 0.79511,-0.51039 1.13243,-0.89927 0.33733,-0.3886 0.60228,-0.85039 0.81915,-1.4337 0.21687,-0.58331 0.31329,-1.28787 0.31329,-2.13853 0,-0.94761 -0.1445,-1.72536 -0.45779,-2.33298 -0.31328,-0.63165 -0.69868,-1.11774 -1.18077,-1.50661 -0.48182,-0.36457 -1.03602,-0.63192 -1.68663,-0.80205 -0.62631,-0.14583 -1.25289,-0.21874 -1.9035,-0.21874 h -4.722567 z"
     fill="#da1931"
     id="path23"
     style="stroke-width:2.67083" />
  <path
     d="m 126.18585,172.63508 h 1.8792 l 6.50587,12.80691 h -1.73497 l -1.63855,-3.32919 h -8.19225 l -1.66259,3.32919 h -1.71067 z m 4.33689,8.09236 -3.39729,-6.8774 -3.3973,6.8774 z"
     fill="#da1931"
     id="path24"
     style="stroke-width:2.67083" />
  <path
     d="m 147.62996,173.99694 h -6.12022 v -1.38536 h 13.7823 v 1.38536 h -6.11995 v 11.42155 h -1.54213 z"
     fill="#da1931"
     id="path25"
     style="stroke-width:2.67083" />
  <path
     d="m 165.77345,172.63508 h 1.54214 v 12.80691 h -1.54214 z"
     fill="#da1931"
     id="path26"
     style="stroke-width:2.67083" />
  <path
     d="m 178.20697,179.10304 c 0,-1.06914 0.19284,-2.01702 0.5542,-2.86768 0.36136,-0.85039 0.89152,-1.55522 1.54214,-2.13853 0.65035,-0.58304 1.44572,-1.02053 2.33724,-1.33648 0.91556,-0.31596 1.9035,-0.46179 2.9876,-0.46179 1.08435,0 2.07229,0.14583 2.98785,0.46179 0.91557,0.31595 1.68664,0.75344 2.33725,1.33648 0.65061,0.58331 1.18051,1.28814 1.54214,2.13853 0.36136,0.85066 0.5542,1.79854 0.5542,2.86768 0,1.14204 -0.21688,2.11423 -0.65062,2.96489 -0.43374,0.82609 -0.98794,1.53092 -1.68663,2.06562 -0.69869,0.53443 -1.49406,0.94761 -2.38559,1.21496 -0.89152,0.26735 -1.78304,0.38887 -2.72264,0.38887 -0.91556,0 -1.83112,-0.12152 -2.72265,-0.38887 -0.89152,-0.26735 -1.68663,-0.68053 -2.38558,-1.21496 -0.69869,-0.5347 -1.25289,-1.23953 -1.68663,-2.06562 -0.38541,-0.82636 -0.60228,-1.82285 -0.60228,-2.96489 z m 1.56618,-0.26735 c 0,0.97218 0.16853,1.79827 0.48182,2.5031 0.31328,0.70483 0.74703,1.26357 1.27719,1.72536 0.52989,0.46178 1.15647,0.77774 1.8792,0.99648 0.69895,0.21875 1.44572,0.31596 2.24109,0.31596 0.7708,0 1.51783,-0.0972 2.21652,-0.31596 0.69896,-0.21874 1.32527,-0.5347 1.87947,-0.99648 0.53016,-0.46179 0.9639,-1.02053 1.30123,-1.72536 0.31329,-0.70483 0.48181,-1.53092 0.48181,-2.5031 0,-0.70484 -0.14449,-1.3851 -0.4097,-2.01702 -0.26495,-0.63191 -0.65035,-1.16635 -1.15647,-1.65244 -0.50586,-0.48609 -1.1084,-0.85066 -1.83112,-1.11801 -0.723,-0.26708 -1.54214,-0.41291 -2.4577,-0.41291 -0.91556,0 -1.73497,0.14583 -2.4577,0.41291 -0.723,0.26735 -1.34931,0.65622 -1.83139,1.11801 -0.50586,0.48609 -0.89152,1.02053 -1.15647,1.65244 -0.31329,0.63192 -0.45778,1.28788 -0.45778,2.01702 z"
     fill="#da1931"
     id="path27"
     style="stroke-width:2.67083" />
  <path
     d="m 203.98878,172.63508 h 2.19248 l 9.4454,10.52255 v -10.52255 h 1.54214 v 12.80691 h -1.54214 l -10.16812,-11.42181 v 11.42181 h -1.46976 z"
     fill="#da1931"
     id="path28"
     style="stroke-width:2.67083" />
  <path
     d="M 0.12063079,144.59402 H 13.035582 v 1.55523 H 1.8795684 v 4.66594 h 9.3247846 v 1.57953 H 1.8795684 v 5.24925 H 13.276544 v 1.55523 H 0.12063079 Z"
     fill="#006848"
     id="path29"
     style="stroke-width:2.67083" />
  <path
     d="m 22.023411,144.57052 h 2.144464 L 31.6133,159.2 h -1.975882 l -1.879464,-3.79098 H 18.409162 L 16.505633,159.2 H 14.55395 Z m 4.987778,9.25897 -3.9035,-7.87388 -3.879303,7.87388 z"
     fill="#006848"
     id="path30"
     style="stroke-width:2.67083" />
  <path
     d="m 34.479636,155.01988 c 0.843449,1.11801 2.240828,2.96489 6.577992,2.96489 2.240827,0 5.301066,-0.63192 5.301066,-2.91628 0,-4.4472 -12.650127,-0.53443 -12.650127,-6.46421 0,-3.11046 2.843367,-4.37403 6.794863,-4.37403 3.831308,0 6.168286,1.57953 7.180531,2.98893 l -1.277192,1.0451 c -0.602272,-0.68053 -1.999918,-2.55171 -5.951414,-2.55171 -2.91548,0 -4.963741,0.75317 -4.963741,2.62462 0,4.42263 12.625823,0.19417 12.625823,6.7556 0,2.4545 -2.361282,4.49581 -7.276681,4.49581 -4.746602,0 -6.505612,-1.9927 -7.734462,-3.3778 z"
     fill="#006848"
     id="path31"
     style="stroke-width:2.67083" />
  <path
     d="m 56.960561,146.14925 h -7.011468 v -1.55523 h 15.73387 v 1.55523 h -6.98743 v 13.04995 h -1.734972 z"
     fill="#006848"
     id="path32"
     style="stroke-width:2.67083" />
  <path
     d="m 70.64617,153.10062 h -5.397217 v 1.48071 h 5.397217 z"
     fill="#006848"
     id="path33"
     style="stroke-width:2.67083" />
  <path
     d="m 73.466034,144.59402 h 1.855426 l 3.44564,11.85903 h 0.02404 l 3.566094,-11.85903 h 1.686631 l 3.590132,11.78611 h 0.02404 l 3.469678,-11.78611 h 1.831389 l -4.50596,14.60518 h -1.662326 l -3.518019,-11.93194 h -0.04808 l -3.542057,11.93194 h -1.686631 z"
     fill="#006848"
     id="path34"
     style="stroke-width:2.67083" />
  <path
     d="M 97.079124,144.59402 H 109.9942 v 1.55523 H 98.838134 v 4.66594 h 9.324676 v 1.57953 h -9.324676 v 5.24925 h 11.396976 v 1.55523 H 97.079124 Z"
     fill="#006848"
     id="path35"
     style="stroke-width:2.67083" />
  <path
     d="m 113.22243,155.01988 c 0.84318,1.11801 2.24083,2.96489 6.57773,2.96489 2.24082,0 5.27703,-0.63192 5.27703,-2.91628 0,-4.4472 -12.62583,-0.53443 -12.62583,-6.46421 0,-3.11046 2.8431,-4.37403 6.7946,-4.37403 3.83131,0 6.19259,1.57953 7.18053,2.98893 l -1.27719,1.0451 c -0.60227,-0.68053 -1.99992,-2.55171 -5.95142,-2.55171 -2.91548,0 -4.96347,0.75317 -4.96347,2.62462 0,4.42263 12.62582,0.19417 12.62582,6.7556 0,2.4545 -2.36155,4.49581 -7.27695,4.49581 -4.7466,0 -6.50561,-1.9927 -7.73446,-3.3778 z"
     fill="#006848"
     id="path36"
     style="stroke-width:2.67083" />
  <path
     d="m 135.67905,146.14925 h -6.98743 v -1.55523 h 15.73414 v 1.55523 h -6.9877 v 13.04995 h -1.75901 z"
     fill="#006848"
     id="path37"
     style="stroke-width:2.67083" />
  <path
     d="m 155.07597,155.01988 c 0.84345,1.11801 2.24083,2.96489 6.57799,2.96489 2.24083,0 5.27676,-0.63192 5.27676,-2.91628 0,-4.4472 -12.64986,-0.53443 -12.64986,-6.46421 0,-3.11046 2.86741,-4.37403 6.79486,-4.37403 3.83104,0 6.16829,1.57953 7.18027,2.98893 l -1.27693,1.0451 c -0.60254,-0.68053 -1.99992,-2.55171 -5.95168,-2.55171 -2.91548,0 -4.96347,0.75317 -4.96347,2.62462 0,4.42263 12.64986,0.19417 12.64986,6.7556 0,2.4545 -2.36128,4.49581 -7.27668,4.49581 -4.7466,0 -6.50561,-1.9927 -7.73446,-3.3778 z"
     fill="#006848"
     id="path38"
     style="stroke-width:2.67083" />
  <path
     d="m 172.01438,144.59402 h 12.91481 v 1.55523 h -11.1558 v 4.66594 h 9.32468 v 1.57953 h -9.32468 v 5.24925 h 11.39697 v 1.55523 h -13.15598 z"
     fill="#006848"
     id="path39"
     style="stroke-width:2.67083" />
  <path
     d="m 188.014,144.59402 h 12.91481 v 1.55523 h -11.15607 v 4.66594 h 9.32494 v 1.57953 h -9.32494 v 5.24925 h 11.39698 v 1.55523 H 188.014 Z"
     fill="#006848"
     id="path40"
     style="stroke-width:2.67083" />
  <path
     d="m 204.01335,144.59402 h 7.15623 c 4.50596,0 7.75876,2.40589 7.75876,7.16878 0,5.95409 -4.48165,7.4364 -8.31269,7.4364 h -6.6023 z m 1.75901,13.04995 h 5.10823 c 1.44572,0 6.24067,-0.19443 6.24067,-5.92978 0,-4.27707 -3.0119,-5.54064 -5.95168,-5.54064 h -5.39722 z"
     fill="#006848"
     id="path41"
     style="stroke-width:2.67083" />
  <path
     d="M 94.789954,76.307532 56.382326,37.595428 c -0.843182,-0.850659 -2.096069,-1.093705 -3.180427,-0.631918 -1.084357,0.461786 -1.807084,1.53092 -1.807084,2.721844 V 57.352372 H 2.9395975 c -0.7710397,0 -1.5179886,0.315959 -2.07217279,0.874964 C 0.31323781,58.786074 0,59.539516 0,60.317262 v 36.209 c 0,0.777746 0.31323781,1.531188 0.86742471,2.089926 0.55418419,0.559005 1.30113309,0.874964 2.07217279,0.874964 H 51.394815 v 17.667288 c 0,1.19065 0.722727,2.26005 1.807084,2.72157 0.361364,0.14583 0.747032,0.21875 1.108395,0.21875 0.77107,0 1.518101,-0.29166 2.072032,-0.8504 L 94.789954,80.487383 c 0.554198,-0.5347 0.867486,-1.312179 0.867486,-2.089926 -0.02404,-0.777746 -0.337326,-1.53092 -0.867486,-2.089925 z"
     fill="#da1931"
     id="path42"
     style="stroke-width:2.67083" />
  <path
     d="m 218.18131,58.203032 c -0.5542,-0.559005 -1.30123,-0.85066 -2.0723,-0.85066 H 167.65372 V 39.685354 c 0,-1.190924 -0.72273,-2.260058 -1.80709,-2.721844 -1.08409,-0.461787 -2.33724,-0.218741 -3.18043,0.631918 l -38.38359,38.736408 c -1.13243,1.142315 -1.13243,3.0135 0,4.155547 l 38.38359,38.712367 c 0.5542,0.55874 1.30097,0.8747 2.07204,0.8747 0.38566,0 0.74703,-0.0729 1.10839,-0.21874 1.08436,-0.46152 1.80709,-1.53092 1.80709,-2.72158 V 99.442543 h 48.45529 c 0.77107,0 1.5181,-0.315959 2.0723,-0.874697 0.5542,-0.559006 0.86722,-1.312447 0.86722,-2.089926 V 60.268653 c -0.024,-0.753442 -0.31302,-1.506616 -0.86722,-2.065621 z"
     fill="#da1931"
     id="path43"
     style="stroke-width:2.67083" />
  <path
     d="m 130.93298,34.606234 c -6.07186,-0.631919 -11.56577,6.099645 -12.55344,6.853087 -0.98794,0.72887 -2.33724,-0.243046 -2.33724,-0.243046 l 0.21687,-1.361056 c 4.3612,-6.294082 5.66216,-9.015659 4.86705,-17.472661 -0.53016,-5.492138 -5.42125,-6.051063 -5.42125,-6.051063 l -0.81941,-1.044963 c 0,0 -0.45778,-5.9052623 -3.20446,-6.0267585 -2.77099,-0.1215228 -4.84329,5.8080445 -4.84329,5.8080445 0,0 -7.373099,1.72541 -7.686121,10.789866 -0.385668,11.470394 6.192321,14.799586 6.192321,14.799586 l 0.0724,1.287875 c 0,0 -1.95184,-1.287875 -3.73489,-1.968403 C 99.898474,39.296481 97.464812,39.174958 97.464812,39.174958 91.103959,34.047228 85.6584,37.449601 85.6584,37.449601 c 2.939518,0.801784 6.915318,4.811503 11.204139,8.456654 4.288821,3.645419 9.662001,9.696455 9.662001,9.696455 v 1.117743 c -0.67465,0.04861 -4.3369,-1.725357 -7.348793,-3.15906 -2.98786,-1.409398 -5.73481,0.437483 -5.73481,0.437483 0,0 4.14433,2.284362 5.73481,4.446934 1.036013,1.409665 2.288903,3.5482 3.734623,7.655138 1.03602,2.964623 3.49372,5.054549 3.49372,5.054549 v 36.282183 c 0,0 -2.62623,0.31596 -3.10805,-0.19444 -0.86749,-0.8747 -7.782805,-2.33297 -10.096012,3.57224 -2.337245,5.92978 1.831389,12.95273 13.035532,13.14717 11.20414,0.19443 16.14357,-5.56495 15.34846,-11.30002 -0.7951,-5.73535 -9.42109,-5.68674 -9.42109,-5.68674 V 70.693977 c 4.33717,-2.089925 8.74644,-6.853087 10.69829,-12.223862 1.1805,-3.256278 4.3612,-5.735077 4.3612,-5.735077 0,0 -3.92746,-0.559005 -7.15623,2.041317 -2.53008,2.017012 -6.28901,4.447202 -6.67441,4.495811 -0.36136,0.07291 -0.98794,-1.166353 -0.98794,-1.166353 0.0724,-1.409665 0.24091,-2.64893 0.24091,-2.64893 0,0 4.96374,-0.31596 9.18018,-3.256546 2.86741,-2.017012 6.72275,-7.338911 9.49348,-9.696187 2.74695,-2.357276 7.34906,-4.374288 7.34906,-4.374288 -1.85543,-2.041317 -3.59014,-3.086146 -7.73447,-3.523628 z m -18.77007,76.282156 c 2.02396,-0.19417 4.43358,0.97218 4.81898,3.69403 0.38567,2.72158 -3.73462,5.90521 -9.32467,5.90521 -5.56601,0 -12.457293,-3.0135 -10.96323,-7.26627 1.638288,-4.66567 6.72248,-2.04131 7.30072,-0.87469 0.57823,1.16635 2.60219,0.97191 2.60219,0.97191 2.31321,-0.0972 3.56609,-2.23575 5.56601,-2.43019 z"
     fill="#006848"
     id="path44"
     style="stroke-width:2.67083" />
</svg>
