<?xml version="1.0" encoding="UTF-8" standalone="no"?>
<svg
   width="1310.34"
   height="436.73877"
   viewBox="0 0 1310.34 436.73877"
   version="1.1"
   id="svg5"
   sodipodi:docname="mix-logo-white.svg"
   inkscape:export-filename="mix-logo.svg"
   inkscape:export-xdpi="732.63428"
   inkscape:export-ydpi="732.63428"
   xml:space="preserve"
   inkscape:version="1.4 (e7c3feb1, 2024-10-09)"
   xmlns:inkscape="http://www.inkscape.org/namespaces/inkscape"
   xmlns:sodipodi="http://sodipodi.sourceforge.net/DTD/sodipodi-0.dtd"
   xmlns="http://www.w3.org/2000/svg"
   xmlns:svg="http://www.w3.org/2000/svg"><sodipodi:namedview
     id="namedview5"
     pagecolor="#ffffff"
     bordercolor="#000000"
     borderopacity="0.25"
     inkscape:showpageshadow="2"
     inkscape:pageopacity="0.0"
     inkscape:pagecheckerboard="0"
     inkscape:deskcolor="#d1d1d1"
     inkscape:zoom="0.28322597"
     inkscape:cx="217.1411"
     inkscape:cy="328.35972"
     inkscape:window-width="1472"
     inkscape:window-height="829"
     inkscape:window-x="0"
     inkscape:window-y="37"
     inkscape:window-maximized="1"
     inkscape:current-layer="g5"><inkscape:page
       x="0"
       y="0"
       width="1310.34"
       height="436.73877"
       id="page2"
       margin="0"
       bleed="0" /></sodipodi:namedview><defs
     id="defs1"><clipPath
       id="a"><rect
         width="131.034"
         height="43.674"
         fill="none"
         id="rect1"
         x="0"
         y="0" /></clipPath></defs><g
     id="g5"
     transform="translate(328.37751,125.91733)"><g
       clip-path="url(#a)"
       id="g4"
       transform="matrix(10,0,0,10,-328.37751,-125.91857)"><path
         d="M 11.215,43.589 H 0 V 1.174 h 10.788 c 0.459,1.287 -0.038,2.66 0.352,4.236 a 13.056,13.056 0 0 1 11.345,-5.363 12.776,12.776 0 0 1 11.05,5.966 c 0.177,-0.082 0.385,-0.112 0.48,-0.231 4.46,-5.605 10.378,-6.693 16.93,-5.136 5.7,1.354 9.3,6.151 9.73,12.443 0.4,5.83 0.11,11.67 0.167,17.506 0.042,4.291 0.008,8.582 0.008,12.957 H 49.509 v -3.665 c 0,-7.068 0.011,-14.137 -0.012,-21.205 a 15.883,15.883 0 0 0 -0.279,-2.923 c -0.672,-3.5 -2.989,-5.508 -6.323,-5.551 a 6.582,6.582 0 0 0 -6.573,5.369 15.458,15.458 0 0 0 -0.338,3.288 c -0.027,8.171 -0.015,16.341 -0.015,24.643 H 24.628 v -2.032 q 0,-11.617 -0.006,-23.235 a 16.891,16.891 0 0 0 -0.156,-2.385 c -0.457,-3.168 -2.345,-5.128 -5.272,-5.528 a 6.457,6.457 0 0 0 -7.183,3.914 11.226,11.226 0 0 0 -0.8,4.5 c 0.009,8.226 0,16.452 0,24.846"
         fill="#fff"
         id="path1"
         style="fill:#000000;fill-opacity:1" /><path
         d="m 157.26,43.953 c -3.979,0 -7.611,-0.049 -11.241,0.03 -1.074,0.023 -1.5,-0.552 -2,-1.287 -2.632,-3.917 -5.288,-7.817 -8.076,-11.929 -2.757,4.023 -5.44,7.864 -8.029,11.769 a 2.718,2.718 0 0 1 -2.646,1.451 c -3.42,-0.1 -6.846,-0.035 -10.624,-0.035 1.427,-2.085 2.654,-3.889 3.892,-5.686 3.38,-4.9 6.722,-9.833 10.181,-14.68 a 1.942,1.942 0 0 0 -0.047,-2.7 C 124.551,15 120.5,9.067 116.429,3.149 116.09,2.658 115.753,2.166 115.237,1.413 c 4.246,0 8.215,0.012 12.185,-0.011 0.822,0 0.968,0.646 1.272,1.135 q 3.548,5.7 7.072,11.422 c 0.64,-0.042 0.727,-0.613 0.959,-0.983 2.144,-3.434 4.287,-6.869 6.366,-10.342 a 2.175,2.175 0 0 1 2.17,-1.253 c 3.673,0.076 7.348,0.029 11.386,0.029 L 142.3,22.269 157.26,43.953"
         transform="translate(-26.226,-0.316)"
         fill="#fff"
         id="path2"
         style="fill:#000000;fill-opacity:1" /><path
         d="M 102.5,48.49 H 91.1 v -7.195 c 0,-4.661 -0.018,-9.322 0.006,-13.983 a 5.651,5.651 0 0 1 11.258,-0.827 11.607,11.607 0 0 1 0.129,1.83 c 0.008,6.673 0.005,13.346 0.005,20.175"
         transform="translate(-20.838,-4.923)"
         fill="#fff"
         id="path3"
         style="fill:#000000;fill-opacity:1" /><path
         d="M 96.2,12.983 C 92.74,12.955 89.561,10.006 89.738,6.783 89.969,2.6 92.361,0.187 96.5,0.1 a 6.29,6.29 0 0 1 6.48,6.518 c -0.025,3.794 -2.8,6.4 -6.783,6.37"
         transform="translate(-20.527,-0.022)"
         fill="#fea7c7"
         id="path4" /></g></g></svg>
